<svg id="Icons" height="512" viewBox="0 0 60 60" width="512" xmlns="http://www.w3.org/2000/svg"><path d="m8.374 19 31.336-17.492a4 4 0 0 1 5.442 1.543l3.025 5.419a1.968 1.968 0 0 1 -.412 2.458 8.006 8.006 0 0 0 -2.565 8.072l-.2 3h-37z" fill="#f7c331"/><path d="m51 39a8.005 8.005 0 0 0 6.44 7.85 1.963 1.963 0 0 1 1.56 1.94v6.21a4 4 0 0 1 -4 4h-50a4 4 0 0 1 -4-4v-32a4 4 0 0 1 4-4h50a4 4 0 0 1 4 4v6.21a1.963 1.963 0 0 1 -1.56 1.94 8.005 8.005 0 0 0 -6.44 7.85z" fill="#e5354b"/><g fill="#c12748"><path d="m44 56v3h-2v-3a1 1 0 0 1 2 0z"/><path d="m43 49a1 1 0 0 0 -1 1v2a1 1 0 0 0 2 0v-2a1 1 0 0 0 -1-1z"/><path d="m43 43a1 1 0 0 0 -1 1v2a1 1 0 0 0 2 0v-2a1 1 0 0 0 -1-1z"/><path d="m43 37a1 1 0 0 0 -1 1v2a1 1 0 0 0 2 0v-2a1 1 0 0 0 -1-1z"/><path d="m43 31a1 1 0 0 0 -1 1v2a1 1 0 0 0 2 0v-2a1 1 0 0 0 -1-1z"/><path d="m43 25a1 1 0 0 0 -1 1v2a1 1 0 0 0 2 0v-2a1 1 0 0 0 -1-1z"/><path d="m44 19v3a1 1 0 0 1 -2 0v-3z"/></g><path d="m12 52a1 1 0 0 1 -.707-1.707l22-22a1 1 0 0 1 1.414 1.414l-22 22a1 1 0 0 1 -.707.293z" fill="#fff"/><path d="m16 38a5 5 0 1 1 5-5 5.006 5.006 0 0 1 -5 5zm0-8a3 3 0 1 0 3 3 3 3 0 0 0 -3-3z" fill="#fff"/><path d="m30 52a5 5 0 1 1 5-5 5.006 5.006 0 0 1 -5 5zm0-8a3 3 0 1 0 3 3 3 3 0 0 0 -3-3z" fill="#fff"/></svg>