<svg height="512" viewBox="0 0 512 512" width="512" xmlns="http://www.w3.org/2000/svg"><g id="a"><g><ellipse cx="187.18" cy="360.52" fill="#454565" rx="40.45" ry="35.15" transform="matrix(.731 -.682 .682 .731 -195.57 224.43)"/><ellipse cx="403.39" cy="360.52" fill="#454565" rx="40.45" ry="35.15" transform="matrix(.731 -.682 .682 .731 -137.51 371.88)"/><rect fill="#ed912e" height="34.15" rx="17.08" width="34.15" x="5.53" y="182.71"/><path d="m346.6 356.94c6.07-30 34.41-53.84 64.87-53.84s50.48 22.11 49.9 50.54c31.72.83 40.55-40.94 40.55-40.94 2.67-11.68 6.66-34.45 10-56.8 1.07-7.16.23-14.19-2.43-20.41-5.14-12.02-15.22-33.49-29.94-55.48-10.98-16.4-29.45-26.13-50.51-26.47-12.56-.21-24.9-.32-34.2-.32l-.08-.08c-1.19-20.09-15.84-35.46-36.39-37.3-13.37-1.2-66.33-2.06-91.75-2.06-10.1 0-24.6.14-39.26.38v-.06h-.1l-.05-.02-.04.02h-176.2c-9.43 0-17.08 7.65-17.08 17.08v.09c0 9.38 7.61 16.99 16.99 16.99l35.53.05c8.81.63 15.75 7.97 15.75 16.94v.09c0 9.43-7.65 17.08-17.08 17.08h-18.2c-9.43 0-17.08 7.65-17.08 17.08 0 9.43 7.65 17.08 17.08 17.08h18.2c9.43 0 17.08 7.65 17.08 17.08 0 9.43-7.65 17.08-17.08 17.08h-68.12c-9.43 0-17.08 7.65-17.08 17.08h0c0 9.43 7.65 17.08 17.08 17.08h68.14c9.43 0 17.08 7.65 17.08 17.08 0 9.43-7.65 17.08-17.08 17.08h-21.06c-9.43 0-17.08 7.65-17.08 17.08 0 9.43 7.65 17.08 17.08 17.08l67.25-.05 5.6-13.93c11.45-21.13 34.23-36.09 58.35-36.09 30.47 0 52.12 23.86 49.73 53.88h101.61m46.64-180.11c8.92.01 20.49.13 32.09.32 14.06.23 26.36 6.68 33.74 17.71 8.93 13.35 16.07 26.56 21.24 37.13 3.29 6.72-2.77 15.47-10.72 15.47h-85.25z" fill="#faab48"/><path d="m358.36 115.83c-13.37-1.2-66.33-2.06-91.75-2.06-10.1 0-24.6.14-39.26.38v-.06h-.1l-.05-.02-.04.02h-176.19c-9.43 0-17.08 7.65-17.08 17.08v.09c0 9.38 7.61 16.99 16.99 16.99l35.53.05c8.81.63 15.75 7.97 15.75 16.94v.09c0 9.43-7.65 17.08-17.08 17.08h-18.2c-9.43 0-17.08 7.65-17.08 17.08 0 9.43 7.65 17.08 17.08 17.08h18.2c9.43 0 17.08 7.65 17.08 17.08 0 9.43-7.65 17.08-17.08 17.08h-68.12c-8.5 0-15.53 6.22-16.84 14.36v5.44c1.31 8.13 8.34 14.36 16.84 14.36h68.14c9.43 0 17.08 7.65 17.08 17.08 0 4.06-1.42 7.78-3.79 10.71 7.8.66 15.68 1 23.65 1 15.32 0 30.35-1.27 44.99-3.66 8.73-4.4 18.36-6.9 28.21-6.9.85 0 1.69.03 2.53.06 86.95-24.7 156.45-90.86 185.79-175.76-6.36-6.45-15.06-10.66-25.21-11.57z" fill="#f8c358"/><g fill="#fff"><path d="m295.33 177.1h-32.59c-3.88 0-7.47 3.15-8.02 7.03l-7.89 56.12c-.55 3.88 2.16 7.03 6.04 7.03h32.59c3.42 0 6.58-2.77 7.06-6.19.48-3.42-1.9-6.19-5.32-6.19h-26.27c-.05 0-.09-.05-.09-.1l2.51-17.86s.04-.07.09-.07h20.44c3.42 0 6.58-2.77 7.06-6.19s-1.9-6.19-5.32-6.19h-20.42c-.05 0-.09-.05-.09-.1l2.09-14.84s.04-.07.09-.07h26.29c3.42 0 6.58-2.77 7.06-6.19s-1.9-6.19-5.32-6.19z"/><path d="m179.06 177.1h-29.23c-3.88 0-7.47 3.15-8.02 7.03l-7.94 56.52c-.51 3.66 2.04 6.63 5.7 6.63s7.04-2.97 7.56-6.63l3.06-21.76s.04-.07.09-.07h17.08c3.66 0 7.04-2.97 7.56-6.63.51-3.66-2.04-6.63-5.7-6.63h-17.06c-.05 0-.09-.05-.09-.1l2.11-15.03s.04-.07.09-.07h22.93c3.66 0 7.05-2.97 7.56-6.63s-2.04-6.63-5.7-6.63z"/><path d="m238.45 181.63c-5.61-4.82-15.52-4.53-15.52-4.53h-22.6c-3.88 0-7.47 3.15-8.02 7.03l-7.94 56.52c-.51 3.66 2.04 6.63 5.7 6.63s7.04-2.97 7.56-6.63l2.4-17.08s.04-.07.09-.07h14.65s.07.02.08.06l6.88 19.99c.79 2.29 2.9 3.74 5.44 3.74h.25c4.9 0 8.83-5.13 7.3-9.53l-5.69-16.39s0-.09.05-.11c3.23-1.36 5.92-3.31 8.07-5.87 3.51-4.18 5.68-9.2 6.51-15.08.55-3.93.42-7.5-.4-10.7s-2.42-5.86-4.8-7.97zm-8.16 18.67s-1.33 10.82-12.73 10.82h-15.79l3.04-21.64h15.79s11.6-.74 9.69 10.82z"/><path d="m349.94 177.1h-32.59c-3.88 0-7.47 3.15-8.02 7.03l-7.89 56.12c-.55 3.88 2.16 7.03 6.04 7.03h32.59c3.42 0 6.58-2.77 7.06-6.19.48-3.42-1.9-6.19-5.32-6.19h-26.27c-.05 0-.09-.05-.09-.1l2.51-17.86s.04-.07.09-.07h20.44c3.42 0 6.58-2.77 7.06-6.19s-1.9-6.19-5.32-6.19h-20.42c-.05 0-.09-.05-.09-.1l2.09-14.84s.04-.07.09-.07h26.29c3.42 0 6.58-2.77 7.06-6.19s-1.9-6.19-5.32-6.19z"/></g></g></g></svg>