<?xml version="1.0" encoding="UTF-8"?>
<svg xmlns="http://www.w3.org/2000/svg" xmlns:xlink="http://www.w3.org/1999/xlink" version="1.1" id="Capa_1" x="0px" y="0px" viewBox="0 0 512 512" style="enable-background:new 0 0 512 512;" xml:space="preserve" width="512" height="512">
<g>
	<path style="fill:#FD8087;" d="M27.703,460.477c-11.158,0-20.203-9.045-20.203-20.203V246.323c0-11.158,9.045-20.203,20.203-20.203&#10;&#9;&#9;h456.594c11.158,0,20.203,9.045,20.203,20.203v193.951c0,11.158-9.045,20.203-20.203,20.203H27.703z"/>
	<path style="fill:#FE646F;" d="M484.297,226.12h-81.06c-11.247,62.417-46.551,129.447-103.13,186.026&#10;&#9;&#9;c-18.396,18.396-37.9,34.528-57.988,48.332h242.179c11.158,0,20.203-9.045,20.203-20.203V246.323&#10;&#9;&#9;C504.5,235.165,495.455,226.12,484.297,226.12z"/>
	<g>
		<g>
			<g>
				<path style="fill:#DFF6FD;" d="M110.593,424.334H65.286c-8.932,0-16.174-7.241-16.174-16.173V278.881&#10;&#9;&#9;&#9;&#9;&#9;c0-8.932,7.241-16.174,16.174-16.174s16.174,7.241,16.174,16.174v113.105h29.134c8.932,0,16.174,7.241,16.174,16.174&#10;&#9;&#9;&#9;&#9;&#9;S119.526,424.334,110.593,424.334z"/>
			</g>
		</g>
		<g>
			<g>
				<path style="fill:#DFF6FD;" d="M173.291,424.334c-8.926,0-16.163-7.236-16.163-16.163V278.871&#10;&#9;&#9;&#9;&#9;&#9;c0-8.926,7.236-16.163,16.163-16.163c8.926,0,16.163,7.236,16.163,16.163v129.301&#10;&#9;&#9;&#9;&#9;&#9;C189.453,417.098,182.217,424.334,173.291,424.334z"/>
			</g>
		</g>
		<path style="fill:#DFF6FD;" d="M446.606,391.771h-38.1v-31.969h34.09c8.992,0,16.281-7.29,16.281-16.281&#10;&#9;&#9;&#9;c0-8.992-7.289-16.281-16.281-16.281h-34.09v-31.968h38.1c8.992,0,16.281-7.29,16.281-16.282c0-8.992-7.289-16.281-16.281-16.281&#10;&#9;&#9;&#9;h-54.382c-8.992,0-16.281,7.29-16.281,16.281v129.063c0,8.992,7.289,16.281,16.281,16.281h54.382&#10;&#9;&#9;&#9;c8.992,0,16.281-7.29,16.281-16.281C462.887,399.061,455.598,391.771,446.606,391.771z"/>
		<g>
			<g>
				<path style="fill:#DFF6FD;" d="M282.708,424.334c-0.002,0-0.003,0-0.005,0c-6.892-0.002-13.043-4.323-15.383-10.805&#10;&#9;&#9;&#9;&#9;&#9;l-46.53-128.902c-3.068-8.498,1.335-17.875,9.833-20.943c8.501-3.069,17.876,1.335,20.943,9.833l31.157,86.313l31.132-86.081&#10;&#9;&#9;&#9;&#9;&#9;c3.073-8.496,12.454-12.894,20.948-9.821c8.496,3.073,12.894,12.452,9.82,20.949l-46.53,128.661&#10;&#9;&#9;&#9;&#9;&#9;C295.749,420.017,289.598,424.334,282.708,424.334z"/>
			</g>
		</g>
	</g>
	<g>
		<circle style="fill:#99E6FC;" cx="256" cy="123.671" r="37.376"/>
		<path style="fill:#62DBFB;" d="M273.736,90.766c2.851,5.277,4.471,11.317,4.471,17.736c0,20.642-16.734,37.376-37.376,37.376&#10;&#9;&#9;&#9;c-6.419,0-12.459-1.62-17.736-4.47c6.316,11.694,18.682,19.639,32.906,19.639c20.642,0,37.376-16.734,37.376-37.376&#10;&#9;&#9;&#9;C293.376,109.448,285.43,97.082,273.736,90.766z"/>
	</g>
	<path style="fill:none;stroke:#000000;stroke-width:15;stroke-linecap:round;stroke-linejoin:round;stroke-miterlimit:10;" d="&#10;&#9;&#9;M72,460.472H27.7c-11.15,0-20.2-9.04-20.2-20.2v-193.95c0-11.16,9.05-20.2,20.2-20.2H405"/>
	<path style="fill:none;stroke:#000000;stroke-width:15;stroke-linecap:round;stroke-linejoin:round;stroke-miterlimit:10;" d="&#10;&#9;&#9;M440,226.122h44.3c11.15,0,20.2,9.04,20.2,20.2v193.95c0,11.16-9.05,20.2-20.2,20.2H107"/>
	<g>
		<g>
			<g>
				<path style="fill:none;stroke:#000000;stroke-width:15;stroke-linecap:round;stroke-linejoin:round;stroke-miterlimit:10;" d="&#10;&#9;&#9;&#9;&#9;&#9;M110.593,424.334H65.286c-8.932,0-16.174-7.241-16.174-16.173V278.881c0-8.932,7.241-16.174,16.174-16.174&#10;&#9;&#9;&#9;&#9;&#9;s16.174,7.241,16.174,16.174v113.105h29.134c8.932,0,16.174,7.241,16.174,16.174S119.526,424.334,110.593,424.334z"/>
			</g>
		</g>
		<g>
			<g>
				<path style="fill:none;stroke:#000000;stroke-width:15;stroke-linecap:round;stroke-linejoin:round;stroke-miterlimit:10;" d="&#10;&#9;&#9;&#9;&#9;&#9;M173.291,424.334c-8.926,0-16.163-7.236-16.163-16.163V278.871c0-8.926,7.236-16.163,16.163-16.163&#10;&#9;&#9;&#9;&#9;&#9;c8.926,0,16.163,7.236,16.163,16.163v129.301C189.453,417.098,182.217,424.334,173.291,424.334z"/>
			</g>
		</g>
		<path style="fill:none;stroke:#000000;stroke-width:15;stroke-linecap:round;stroke-linejoin:round;stroke-miterlimit:10;" d="&#10;&#9;&#9;&#9;M446.606,391.771h-38.1v-31.969h34.09c8.992,0,16.281-7.29,16.281-16.281c0-8.992-7.289-16.281-16.281-16.281h-34.09v-31.968h38.1&#10;&#9;&#9;&#9;c8.992,0,16.281-7.29,16.281-16.282c0-8.992-7.289-16.281-16.281-16.281h-54.382c-8.992,0-16.281,7.29-16.281,16.281v129.063&#10;&#9;&#9;&#9;c0,8.992,7.289,16.281,16.281,16.281h54.382c8.992,0,16.281-7.29,16.281-16.281C462.887,399.061,455.598,391.771,446.606,391.771z&#10;&#9;&#9;&#9;"/>
		<g>
			<g>
				<path style="fill:none;stroke:#000000;stroke-width:15;stroke-linecap:round;stroke-linejoin:round;stroke-miterlimit:10;" d="&#10;&#9;&#9;&#9;&#9;&#9;M282.708,424.334c-0.002,0-0.003,0-0.005,0c-6.892-0.002-13.043-4.323-15.383-10.805l-46.53-128.902&#10;&#9;&#9;&#9;&#9;&#9;c-3.068-8.498,1.335-17.875,9.833-20.943c8.501-3.069,17.876,1.335,20.943,9.833l31.157,86.313l31.132-86.081&#10;&#9;&#9;&#9;&#9;&#9;c3.073-8.496,12.454-12.894,20.948-9.821c8.496,3.073,12.894,12.452,9.82,20.949l-46.53,128.661&#10;&#9;&#9;&#9;&#9;&#9;C295.749,420.017,289.598,424.334,282.708,424.334z"/>
			</g>
		</g>
	</g>
	<path style="fill:none;stroke:#000000;stroke-width:15;stroke-linecap:round;stroke-linejoin:round;stroke-miterlimit:10;" d="&#10;&#9;&#9;M183.856,195.815c-39.779-39.779-39.779-104.508,0-144.287"/>
	<path style="fill:none;stroke:#000000;stroke-width:15;stroke-linecap:round;stroke-linejoin:round;stroke-miterlimit:10;" d="&#10;&#9;&#9;M206.714,172.957c-27.179-27.179-27.179-71.394,0-98.572"/>
	<path style="fill:none;stroke:#000000;stroke-width:15;stroke-linecap:round;stroke-linejoin:round;stroke-miterlimit:10;" d="&#10;&#9;&#9;M328.144,51.528c39.779,39.779,39.779,104.508,0,144.287"/>
	<path style="fill:none;stroke:#000000;stroke-width:15;stroke-linecap:round;stroke-linejoin:round;stroke-miterlimit:10;" d="&#10;&#9;&#9;M305.286,74.385c27.179,27.179,27.179,71.394,0,98.572"/>
	<path style="fill:none;stroke:#000000;stroke-width:15;stroke-linecap:round;stroke-linejoin:round;stroke-miterlimit:10;" d="&#10;&#9;&#9;M288.27,104.792c3.25,5.54,5.11,11.99,5.11,18.88c0,20.64-16.74,37.37-37.38,37.37s-37.38-16.73-37.38-37.37&#10;&#9;&#9;s16.74-37.38,37.38-37.38c1.13,0,2.25,0.05,3.35,0.15"/>
</g>















</svg>
